<mxfile host="Electron" modified="2023-10-16T13:18:17.974Z" agent="Mozilla/5.0 (Windows NT 10.0; Win64; x64) AppleWebKit/537.36 (KHTML, like Gecko) draw.io/22.0.2 Chrome/114.0.5735.289 Electron/25.8.4 Safari/537.36" etag="OGam_mhctmLDCQku_T01" version="22.0.2" type="device">
  <diagram name="Page-1" id="PlO4RaCv59UFWPQcNXEG">
    <mxGraphModel dx="1500" dy="887" grid="1" gridSize="10" guides="1" tooltips="1" connect="1" arrows="1" fold="1" page="1" pageScale="1" pageWidth="1100" pageHeight="850" math="0" shadow="0">
      <root>
        <mxCell id="0" />
        <mxCell id="1" parent="0" />
        <mxCell id="CgskkQyE9UdDNOUFO8Lr-1" value="" style="rounded=0;whiteSpace=wrap;html=1;movable=0;resizable=0;rotatable=0;deletable=0;editable=0;locked=1;connectable=0;" parent="1" vertex="1">
          <mxGeometry x="140" y="80" width="810" height="920" as="geometry" />
        </mxCell>
        <mxCell id="CgskkQyE9UdDNOUFO8Lr-2" value="&lt;font style=&quot;font-size: 24px;&quot;&gt;&lt;b&gt;User&lt;/b&gt;&lt;/font&gt;" style="shape=umlActor;verticalLabelPosition=bottom;verticalAlign=top;html=1;outlineConnect=0;fillStyle=auto;strokeWidth=5;" parent="1" vertex="1">
          <mxGeometry x="30" y="400" width="80" height="130" as="geometry" />
        </mxCell>
        <mxCell id="CgskkQyE9UdDNOUFO8Lr-3" value="&lt;font style=&quot;font-size: 24px;&quot;&gt;&lt;b&gt;Admin&lt;/b&gt;&lt;/font&gt;" style="shape=umlActor;verticalLabelPosition=bottom;verticalAlign=top;html=1;outlineConnect=0;fillStyle=auto;strokeWidth=5;" parent="1" vertex="1">
          <mxGeometry x="990" y="400" width="80" height="130" as="geometry" />
        </mxCell>
        <mxCell id="CgskkQyE9UdDNOUFO8Lr-5" value="Search&lt;br style=&quot;font-size: 24px;&quot;&gt;&amp;nbsp;Product" style="ellipse;whiteSpace=wrap;html=1;fontSize=24;fillColor=#76608a;fontColor=#ffffff;strokeColor=#432D57;" parent="1" vertex="1">
          <mxGeometry x="220" y="90" width="155" height="110" as="geometry" />
        </mxCell>
        <mxCell id="CgskkQyE9UdDNOUFO8Lr-9" value="View &lt;br style=&quot;font-size: 24px;&quot;&gt;Products" style="ellipse;whiteSpace=wrap;html=1;fontSize=24;fillColor=#76608a;fontColor=#ffffff;strokeColor=#432D57;" parent="1" vertex="1">
          <mxGeometry x="220" y="240" width="155" height="110" as="geometry" />
        </mxCell>
        <mxCell id="CgskkQyE9UdDNOUFO8Lr-10" value="Select &lt;br style=&quot;font-size: 24px;&quot;&gt;Product" style="ellipse;whiteSpace=wrap;html=1;fontSize=24;fillColor=#76608a;fontColor=#ffffff;strokeColor=#432D57;" parent="1" vertex="1">
          <mxGeometry x="220" y="400" width="155" height="110" as="geometry" />
        </mxCell>
        <mxCell id="CgskkQyE9UdDNOUFO8Lr-11" value="View Product Descriptions" style="ellipse;whiteSpace=wrap;html=1;fontSize=24;fillColor=#76608a;fontColor=#ffffff;strokeColor=#432D57;" parent="1" vertex="1">
          <mxGeometry x="220" y="550" width="155" height="110" as="geometry" />
        </mxCell>
        <mxCell id="CgskkQyE9UdDNOUFO8Lr-12" value="&lt;font style=&quot;font-size: 21px;&quot;&gt;View &amp;amp; Provide Reviews and Ratings&lt;/font&gt;" style="ellipse;whiteSpace=wrap;html=1;fontSize=21;fillColor=#76608a;fontColor=#ffffff;strokeColor=#432D57;" parent="1" vertex="1">
          <mxGeometry x="205" y="700" width="170" height="130" as="geometry" />
        </mxCell>
        <mxCell id="CgskkQyE9UdDNOUFO8Lr-13" value="Check &lt;br style=&quot;font-size: 24px;&quot;&gt;Discounts" style="ellipse;whiteSpace=wrap;html=1;fontSize=24;fillColor=#76608a;fontColor=#ffffff;strokeColor=#432D57;" parent="1" vertex="1">
          <mxGeometry x="210" y="870" width="155" height="110" as="geometry" />
        </mxCell>
        <mxCell id="CgskkQyE9UdDNOUFO8Lr-18" value="" style="endArrow=none;html=1;rounded=0;exitX=0.75;exitY=0.1;exitDx=0;exitDy=0;exitPerimeter=0;entryX=0;entryY=0.5;entryDx=0;entryDy=0;" parent="1" source="CgskkQyE9UdDNOUFO8Lr-2" target="CgskkQyE9UdDNOUFO8Lr-5" edge="1">
          <mxGeometry width="50" height="50" relative="1" as="geometry">
            <mxPoint x="560" y="480" as="sourcePoint" />
            <mxPoint x="610" y="430" as="targetPoint" />
          </mxGeometry>
        </mxCell>
        <mxCell id="CgskkQyE9UdDNOUFO8Lr-19" value="" style="endArrow=none;html=1;rounded=0;exitX=1;exitY=0.3333333333333333;exitDx=0;exitDy=0;exitPerimeter=0;entryX=0;entryY=0.5;entryDx=0;entryDy=0;" parent="1" source="CgskkQyE9UdDNOUFO8Lr-2" target="CgskkQyE9UdDNOUFO8Lr-9" edge="1">
          <mxGeometry width="50" height="50" relative="1" as="geometry">
            <mxPoint x="100" y="423" as="sourcePoint" />
            <mxPoint x="230" y="155" as="targetPoint" />
          </mxGeometry>
        </mxCell>
        <mxCell id="CgskkQyE9UdDNOUFO8Lr-20" value="" style="endArrow=none;html=1;rounded=0;exitX=0.5;exitY=0.5;exitDx=0;exitDy=0;exitPerimeter=0;entryX=0;entryY=0.5;entryDx=0;entryDy=0;" parent="1" source="CgskkQyE9UdDNOUFO8Lr-2" target="CgskkQyE9UdDNOUFO8Lr-12" edge="1">
          <mxGeometry width="50" height="50" relative="1" as="geometry">
            <mxPoint x="110" y="433" as="sourcePoint" />
            <mxPoint x="240" y="165" as="targetPoint" />
          </mxGeometry>
        </mxCell>
        <mxCell id="CgskkQyE9UdDNOUFO8Lr-21" value="" style="endArrow=none;html=1;rounded=0;exitX=0;exitY=1;exitDx=0;exitDy=0;exitPerimeter=0;entryX=0;entryY=0.5;entryDx=0;entryDy=0;" parent="1" source="CgskkQyE9UdDNOUFO8Lr-2" target="CgskkQyE9UdDNOUFO8Lr-13" edge="1">
          <mxGeometry width="50" height="50" relative="1" as="geometry">
            <mxPoint x="120" y="443" as="sourcePoint" />
            <mxPoint x="250" y="175" as="targetPoint" />
          </mxGeometry>
        </mxCell>
        <mxCell id="CgskkQyE9UdDNOUFO8Lr-22" value="" style="endArrow=none;html=1;rounded=0;exitX=0.5;exitY=0.5;exitDx=0;exitDy=0;exitPerimeter=0;entryX=0;entryY=0.5;entryDx=0;entryDy=0;" parent="1" source="CgskkQyE9UdDNOUFO8Lr-2" target="CgskkQyE9UdDNOUFO8Lr-10" edge="1">
          <mxGeometry width="50" height="50" relative="1" as="geometry">
            <mxPoint x="120" y="453" as="sourcePoint" />
            <mxPoint x="340" y="285" as="targetPoint" />
          </mxGeometry>
        </mxCell>
        <mxCell id="CgskkQyE9UdDNOUFO8Lr-23" value="" style="endArrow=none;html=1;rounded=0;exitX=0.5;exitY=0.5;exitDx=0;exitDy=0;exitPerimeter=0;entryX=0;entryY=0.5;entryDx=0;entryDy=0;" parent="1" source="CgskkQyE9UdDNOUFO8Lr-2" target="CgskkQyE9UdDNOUFO8Lr-11" edge="1">
          <mxGeometry width="50" height="50" relative="1" as="geometry">
            <mxPoint x="130" y="463" as="sourcePoint" />
            <mxPoint x="350" y="295" as="targetPoint" />
          </mxGeometry>
        </mxCell>
        <mxCell id="CgskkQyE9UdDNOUFO8Lr-25" value="Manage Products" style="ellipse;whiteSpace=wrap;html=1;fontSize=24;fillColor=#76608a;fontColor=#ffffff;strokeColor=#432D57;" parent="1" vertex="1">
          <mxGeometry x="630" y="220" width="155" height="110" as="geometry" />
        </mxCell>
        <mxCell id="CgskkQyE9UdDNOUFO8Lr-26" value="Add Categories" style="ellipse;whiteSpace=wrap;html=1;fontSize=24;fillColor=#76608a;fontColor=#ffffff;strokeColor=#432D57;" parent="1" vertex="1">
          <mxGeometry x="630" y="350" width="155" height="110" as="geometry" />
        </mxCell>
        <mxCell id="CgskkQyE9UdDNOUFO8Lr-27" value="Add Products" style="ellipse;whiteSpace=wrap;html=1;fontSize=24;fillColor=#76608a;fontColor=#ffffff;strokeColor=#432D57;" parent="1" vertex="1">
          <mxGeometry x="630" y="480" width="155" height="110" as="geometry" />
        </mxCell>
        <mxCell id="CgskkQyE9UdDNOUFO8Lr-28" value="Update&lt;br style=&quot;font-size: 24px;&quot;&gt;&amp;nbsp;Products" style="ellipse;whiteSpace=wrap;html=1;fontSize=24;fillColor=#76608a;fontColor=#ffffff;strokeColor=#432D57;" parent="1" vertex="1">
          <mxGeometry x="630" y="610" width="155" height="110" as="geometry" />
        </mxCell>
        <mxCell id="CgskkQyE9UdDNOUFO8Lr-29" value="Delete&lt;br style=&quot;font-size: 24px;&quot;&gt;&amp;nbsp;Products" style="ellipse;whiteSpace=wrap;html=1;fontSize=24;fillColor=#76608a;fontColor=#ffffff;strokeColor=#432D57;" parent="1" vertex="1">
          <mxGeometry x="630" y="740" width="155" height="110" as="geometry" />
        </mxCell>
        <mxCell id="CgskkQyE9UdDNOUFO8Lr-30" value="View All Products" style="ellipse;whiteSpace=wrap;html=1;fontSize=24;fillColor=#76608a;fontColor=#ffffff;strokeColor=#432D57;" parent="1" vertex="1">
          <mxGeometry x="630" y="90" width="155" height="110" as="geometry" />
        </mxCell>
        <mxCell id="CgskkQyE9UdDNOUFO8Lr-31" value="" style="endArrow=none;html=1;rounded=0;exitX=0;exitY=0.3333333333333333;exitDx=0;exitDy=0;exitPerimeter=0;entryX=1;entryY=0.5;entryDx=0;entryDy=0;" parent="1" source="CgskkQyE9UdDNOUFO8Lr-3" target="CgskkQyE9UdDNOUFO8Lr-25" edge="1">
          <mxGeometry width="50" height="50" relative="1" as="geometry">
            <mxPoint x="560" y="470" as="sourcePoint" />
            <mxPoint x="610" y="420" as="targetPoint" />
          </mxGeometry>
        </mxCell>
        <mxCell id="CgskkQyE9UdDNOUFO8Lr-32" value="" style="endArrow=none;html=1;rounded=0;exitX=0.5;exitY=0.5;exitDx=0;exitDy=0;exitPerimeter=0;entryX=1;entryY=0.5;entryDx=0;entryDy=0;" parent="1" source="CgskkQyE9UdDNOUFO8Lr-3" target="CgskkQyE9UdDNOUFO8Lr-26" edge="1">
          <mxGeometry width="50" height="50" relative="1" as="geometry">
            <mxPoint x="570" y="480" as="sourcePoint" />
            <mxPoint x="620" y="430" as="targetPoint" />
          </mxGeometry>
        </mxCell>
        <mxCell id="CgskkQyE9UdDNOUFO8Lr-33" value="" style="endArrow=none;html=1;rounded=0;exitX=0.5;exitY=0.5;exitDx=0;exitDy=0;exitPerimeter=0;entryX=1;entryY=0.5;entryDx=0;entryDy=0;" parent="1" source="CgskkQyE9UdDNOUFO8Lr-3" target="CgskkQyE9UdDNOUFO8Lr-27" edge="1">
          <mxGeometry width="50" height="50" relative="1" as="geometry">
            <mxPoint x="580" y="490" as="sourcePoint" />
            <mxPoint x="630" y="440" as="targetPoint" />
          </mxGeometry>
        </mxCell>
        <mxCell id="CgskkQyE9UdDNOUFO8Lr-34" value="" style="endArrow=none;html=1;rounded=0;exitX=0.5;exitY=0.5;exitDx=0;exitDy=0;exitPerimeter=0;entryX=1;entryY=0.5;entryDx=0;entryDy=0;" parent="1" source="CgskkQyE9UdDNOUFO8Lr-3" target="CgskkQyE9UdDNOUFO8Lr-28" edge="1">
          <mxGeometry width="50" height="50" relative="1" as="geometry">
            <mxPoint x="590" y="500" as="sourcePoint" />
            <mxPoint x="640" y="450" as="targetPoint" />
          </mxGeometry>
        </mxCell>
        <mxCell id="CgskkQyE9UdDNOUFO8Lr-35" value="" style="endArrow=none;html=1;rounded=0;exitX=1;exitY=0.5;exitDx=0;exitDy=0;entryX=0;entryY=1;entryDx=0;entryDy=0;entryPerimeter=0;" parent="1" source="CgskkQyE9UdDNOUFO8Lr-29" target="CgskkQyE9UdDNOUFO8Lr-3" edge="1">
          <mxGeometry width="50" height="50" relative="1" as="geometry">
            <mxPoint x="600" y="510" as="sourcePoint" />
            <mxPoint x="650" y="460" as="targetPoint" />
          </mxGeometry>
        </mxCell>
        <mxCell id="CgskkQyE9UdDNOUFO8Lr-36" value="" style="endArrow=none;html=1;rounded=0;exitX=1;exitY=0.5;exitDx=0;exitDy=0;entryX=0.25;entryY=0.1;entryDx=0;entryDy=0;entryPerimeter=0;" parent="1" source="CgskkQyE9UdDNOUFO8Lr-30" target="CgskkQyE9UdDNOUFO8Lr-3" edge="1">
          <mxGeometry width="50" height="50" relative="1" as="geometry">
            <mxPoint x="610" y="520" as="sourcePoint" />
            <mxPoint x="660" y="470" as="targetPoint" />
          </mxGeometry>
        </mxCell>
        <mxCell id="CgskkQyE9UdDNOUFO8Lr-37" value="Maximum allowed quantity per order" style="ellipse;whiteSpace=wrap;html=1;fontSize=22;fillColor=#76608a;fontColor=#ffffff;strokeColor=#432D57;" parent="1" vertex="1">
          <mxGeometry x="630" y="870" width="155" height="110" as="geometry" />
        </mxCell>
        <mxCell id="CgskkQyE9UdDNOUFO8Lr-38" value="" style="endArrow=none;html=1;rounded=0;exitX=0.982;exitY=0.414;exitDx=0;exitDy=0;entryX=0;entryY=1;entryDx=0;entryDy=0;entryPerimeter=0;exitPerimeter=0;" parent="1" source="CgskkQyE9UdDNOUFO8Lr-37" target="CgskkQyE9UdDNOUFO8Lr-3" edge="1">
          <mxGeometry width="50" height="50" relative="1" as="geometry">
            <mxPoint x="795" y="805" as="sourcePoint" />
            <mxPoint x="1000" y="540" as="targetPoint" />
          </mxGeometry>
        </mxCell>
        <mxCell id="CgskkQyE9UdDNOUFO8Lr-39" value="Product Specifications" style="ellipse;whiteSpace=wrap;html=1;fontSize=24;fillColor=#76608a;fontColor=#ffffff;strokeColor=#432D57;" parent="1" vertex="1">
          <mxGeometry x="440" y="400" width="155" height="110" as="geometry" />
        </mxCell>
        <mxCell id="CgskkQyE9UdDNOUFO8Lr-40" value="Coupons" style="ellipse;whiteSpace=wrap;html=1;fontSize=24;fillColor=#76608a;fontColor=#ffffff;strokeColor=#432D57;" parent="1" vertex="1">
          <mxGeometry x="460" y="550" width="155" height="110" as="geometry" />
        </mxCell>
        <mxCell id="CgskkQyE9UdDNOUFO8Lr-41" value="Availability" style="ellipse;whiteSpace=wrap;html=1;fontSize=24;fillColor=#76608a;fontColor=#ffffff;strokeColor=#432D57;" parent="1" vertex="1">
          <mxGeometry x="440" y="700" width="155" height="110" as="geometry" />
        </mxCell>
        <mxCell id="CgskkQyE9UdDNOUFO8Lr-42" value="" style="endArrow=open;endSize=12;dashed=1;html=1;rounded=0;exitX=1;exitY=0.5;exitDx=0;exitDy=0;entryX=0;entryY=0.5;entryDx=0;entryDy=0;" parent="1" source="CgskkQyE9UdDNOUFO8Lr-11" target="CgskkQyE9UdDNOUFO8Lr-39" edge="1">
          <mxGeometry width="160" relative="1" as="geometry">
            <mxPoint x="510" y="580" as="sourcePoint" />
            <mxPoint x="670" y="580" as="targetPoint" />
          </mxGeometry>
        </mxCell>
        <mxCell id="CgskkQyE9UdDNOUFO8Lr-44" value="" style="endArrow=open;endSize=12;dashed=1;html=1;rounded=0;exitX=1;exitY=0.5;exitDx=0;exitDy=0;entryX=0;entryY=0.5;entryDx=0;entryDy=0;" parent="1" source="CgskkQyE9UdDNOUFO8Lr-11" target="CgskkQyE9UdDNOUFO8Lr-41" edge="1">
          <mxGeometry width="160" relative="1" as="geometry">
            <mxPoint x="395" y="625" as="sourcePoint" />
            <mxPoint x="450" y="475" as="targetPoint" />
          </mxGeometry>
        </mxCell>
        <mxCell id="CgskkQyE9UdDNOUFO8Lr-45" value="&amp;lt;&amp;lt;include&amp;gt;&amp;gt;" style="text;html=1;strokeColor=none;fillColor=none;align=center;verticalAlign=middle;whiteSpace=wrap;rounded=0;fontSize=15;rotation=-70;" parent="1" vertex="1">
          <mxGeometry x="365" y="510" width="60" height="30" as="geometry" />
        </mxCell>
        <mxCell id="CgskkQyE9UdDNOUFO8Lr-46" value="&amp;lt;&amp;lt;extend&amp;gt;&amp;gt;" style="text;html=1;strokeColor=none;fillColor=none;align=center;verticalAlign=middle;whiteSpace=wrap;rounded=0;fontSize=14;rotation=0;" parent="1" vertex="1">
          <mxGeometry x="395" y="580" width="60" height="30" as="geometry" />
        </mxCell>
        <mxCell id="CgskkQyE9UdDNOUFO8Lr-47" value="&amp;lt;&amp;lt;include&amp;gt;&amp;gt;" style="text;html=1;strokeColor=none;fillColor=none;align=center;verticalAlign=middle;whiteSpace=wrap;rounded=0;fontSize=16;rotation=70;" parent="1" vertex="1">
          <mxGeometry x="365" y="670" width="60" height="30" as="geometry" />
        </mxCell>
        <mxCell id="STDrmrYJ9Q8PaXuNjaqj-2" value="" style="endArrow=open;endSize=12;dashed=1;html=1;rounded=0;entryX=1;entryY=0.5;entryDx=0;entryDy=0;exitX=0;exitY=0.5;exitDx=0;exitDy=0;" parent="1" source="CgskkQyE9UdDNOUFO8Lr-40" target="CgskkQyE9UdDNOUFO8Lr-11" edge="1">
          <mxGeometry width="160" relative="1" as="geometry">
            <mxPoint x="420" y="530" as="sourcePoint" />
            <mxPoint x="580" y="530" as="targetPoint" />
          </mxGeometry>
        </mxCell>
      </root>
    </mxGraphModel>
  </diagram>
</mxfile>
